<svg width="2000" height="3950" viewBox="0 0 2000 3950" fill="none" xmlns="http://www.w3.org/2000/svg">
<path d="M2000 966.927C2000 1093.91 1975.19 1219.64 1926.99 1336.95C1878.78 1454.27 1808.13 1560.86 1719.06 1650.65C1629.99 1740.44 1524.25 1811.66 1407.88 1860.25C1291.51 1908.84 1166.78 1933.85 1040.82 1933.85L1040.82 966.927H2000Z" fill="#FEFFF9"/>
<path d="M2000 2983.07C2000 2856.09 1975.19 2730.36 1926.99 2613.05C1878.78 2495.73 1808.13 2389.14 1719.06 2299.35C1629.99 2209.56 1524.25 2138.34 1407.88 2089.75C1291.51 2041.16 1166.78 2016.15 1040.82 2016.15L1040.82 2983.07H2000Z" fill="#FEFFF9"/>
<rect y="946.354" width="938.776" height="2057.29" fill="#FEFFF9"/>
</svg>
