<svg width="174" height="174" viewBox="0 0 174 174" fill="none" xmlns="http://www.w3.org/2000/svg">
<path d="M91.2232 12.926L91.4287 9.46468L96.6437 4.96562L100.024 5.33494L94.8215 9.86671L92.9208 11.4637L91.2232 12.926ZM88.2157 15.0299L89.4016 4.17446L92.4411 4.50651L91.2552 15.3619L88.2157 15.0299ZM95.5044 15.8261L92.4582 10.9581L94.6925 9.03659L99.0711 16.2158L95.5044 15.8261Z" fill="#1B1A1F"/>
<path d="M102.49 16.5305L110.601 7.77228L113.477 8.76177L114.498 20.661L111.459 19.6157L110.949 9.49243L112.1 9.88822L105.47 17.5555L102.49 16.5305ZM105.673 15.3818L107.167 13.4869L112.212 15.2223L112.223 17.6348L105.673 15.3818Z" fill="#1B1A1F"/>
<path d="M119.041 22.3028L125.057 13.1895L127.179 14.5903L126.864 23.2798L125.744 22.5407L133.507 18.7672L135.629 20.1681L129.639 29.2986L127.269 27.7345L130.879 22.2102L131.282 22.4766L125.493 25.272L124.347 24.5157L124.564 18.0419L125.059 18.3685L121.424 23.8756L119.041 22.3028Z" fill="#1B1A1F"/>
<path d="M134.479 32.7308L145.811 28.9798L147.852 31.2358L142.998 42.1478L140.842 39.7646L145.286 30.6544L146.102 31.5568L136.593 35.0677L134.479 32.7308ZM137.821 33.2626L140.044 32.3247L143.623 36.2812L142.468 38.3992L137.821 33.2626Z" fill="#1B1A1F"/>
<path d="M147.043 48.2828C146.635 47.5937 146.381 46.8983 146.28 46.1967C146.193 45.4988 146.265 44.834 146.495 44.2022L149.072 44.635C148.898 45.0763 148.805 45.4815 148.794 45.8507C148.792 46.2145 148.878 46.5441 149.053 46.8395C149.519 47.627 150.209 47.7507 151.122 47.2104L155.163 44.8188L153.24 41.57L155.294 40.3543L158.774 46.2344L152.84 49.7463C151.614 50.472 150.514 50.7062 149.54 50.4489C148.575 50.1862 147.742 49.4642 147.043 48.2828Z" fill="#1B1A1F"/>
<path d="M151.9 55.722L163.801 56.6472L164.81 59.517L156.112 67.7015L155.046 64.6698L162.668 57.988L163.072 59.1359L152.945 58.6948L151.9 55.722ZM154.776 57.5054L157.189 57.5005L158.958 62.5336L157.074 64.0396L154.776 57.5054Z" fill="#1B1A1F"/>
<path d="M157.535 74.4107L162.114 73.8127L160.366 74.7647L167.824 68.8664L168.246 72.0994L162.84 76.361L162.596 74.4893L168.917 77.235L169.305 80.205L160.585 76.4353L162.514 76.8755L157.935 77.4735L157.535 74.4107Z" fill="#1B1A1F"/>
<path d="M158.982 84.6509L169.473 90.3445L169.225 93.3764L157.948 97.3071L158.209 94.1042L167.892 91.1076L167.793 92.3203L158.725 87.7916L158.982 84.6509ZM160.882 87.4513L163.087 88.4297L162.652 93.7472L160.318 94.3547L160.882 87.4513Z" fill="#1B1A1F"/>
<path d="M157.302 102.04L167.707 105.352L166.193 110.109C165.89 111.061 165.476 111.829 164.952 112.415C164.424 113.011 163.807 113.404 163.103 113.595C162.408 113.789 161.664 113.759 160.872 113.507C160.089 113.258 159.47 112.853 159.015 112.294C158.57 111.737 158.304 111.064 158.218 110.272C158.138 109.494 158.25 108.629 158.552 107.677L159.546 104.556L160.363 106.256L156.365 104.984L157.302 102.04ZM155.253 108.477L159.867 107.097L158.868 110.234L154.25 111.628L155.253 108.477ZM160.051 106.157L161.82 105.28L160.884 108.223C160.688 108.837 160.677 109.336 160.85 109.718C161.019 110.111 161.342 110.382 161.818 110.534C162.303 110.688 162.729 110.655 163.094 110.433C163.456 110.221 163.735 109.807 163.931 109.193L164.868 106.249L165.804 107.988L160.051 106.157Z" fill="#1B1A1F"/>
<path d="M152.748 116.306L159.721 125.994L158.18 128.617L146.315 127.254L147.943 124.483L157.966 125.994L157.349 127.043L151.152 119.023L152.748 116.306ZM153.242 119.654L154.802 121.494L152.099 126.093L149.732 125.625L153.242 119.654Z" fill="#1B1A1F"/>
<path d="M142.342 132.43L148.619 138.119L150.871 135.634L152.686 137.279L146.117 144.526L144.302 142.881L146.544 140.408L140.268 134.719L142.342 132.43Z" fill="#1B1A1F"/>
<path d="M134.332 140.732L141.125 149.282L138.707 151.204L131.913 142.654L134.332 140.732Z" fill="#1B1A1F"/>
<path d="M125.429 159.942L122.691 161.373L117.635 151.694L120.373 150.264L125.429 159.942ZM124.106 148.313L126.843 146.883L131.9 156.562L129.162 157.992L124.106 148.313ZM122.151 154.139L126.271 151.987L127.456 154.254L123.336 156.407L122.151 154.139Z" fill="#1B1A1F"/>
<path d="M100.823 159.379C101.234 159.311 101.624 159.341 101.993 159.469C102.354 159.61 102.665 159.832 102.926 160.136C103.179 160.453 103.341 160.827 103.413 161.257C103.484 161.688 103.45 162.084 103.31 162.445C103.161 162.817 102.937 163.123 102.64 163.363C102.334 163.614 101.975 163.773 101.565 163.842C101.155 163.91 100.764 163.875 100.393 163.736C100.024 163.608 99.7135 163.39 99.4623 163.084C99.2026 162.79 99.0369 162.427 98.9653 161.996C98.8937 161.565 98.9316 161.159 99.0788 160.776C99.2175 160.405 99.4399 160.094 99.7461 159.842C100.054 159.602 100.413 159.447 100.823 159.379Z" fill="#1B1A1F"/>
<path d="M80.7346 160.786L80.438 164.241L75.1063 168.601L71.7365 168.143L77.057 163.75L78.999 162.203L80.7346 160.786ZM83.7964 158.762L82.3251 169.583L79.2954 169.171L80.7667 158.35L83.7964 158.762ZM76.5313 157.774L79.4482 162.721L77.1641 164.583L72.976 157.291L76.5313 157.774Z" fill="#1B1A1F"/>
<path d="M69.5675 156.886L61.2275 165.425L58.3782 164.36L57.6735 152.438L60.6835 153.563L60.9247 163.697L59.785 163.27L66.6159 155.782L69.5675 156.886ZM66.355 157.949L64.812 159.804L59.8148 157.935L59.8673 155.523L66.355 157.949Z" fill="#1B1A1F"/>
<path d="M53.1688 150.672L46.9142 159.623L44.8298 158.167L45.3745 149.489L46.4743 150.257L38.615 153.824L36.5306 152.368L42.7597 143.399L45.087 145.025L41.333 150.452L40.9366 150.175L46.7978 147.533L47.9232 148.32L47.535 154.785L47.0491 154.446L50.8287 149.037L53.1688 150.672Z" fill="#1B1A1F"/>
<path d="M38.011 139.841L26.5842 143.292L24.6036 140.983L29.7429 130.203L31.8353 132.642L27.1538 141.632L26.3615 140.708L35.9592 137.449L38.011 139.841ZM34.6841 139.221L32.4374 140.1L28.9636 136.051L30.1743 133.964L34.6841 139.221Z" fill="#1B1A1F"/>
<path d="M25.8619 123.964C26.2514 124.664 26.4874 125.366 26.5698 126.07C26.638 126.77 26.5487 127.433 26.3017 128.058L23.7376 127.557C23.9231 127.121 24.0263 126.718 24.0472 126.349C24.059 125.986 23.9814 125.654 23.8145 125.354C23.3694 124.554 22.6834 124.413 21.7565 124.929L17.6537 127.212L19.4899 130.511L17.4044 131.672L14.0811 125.702L20.1058 122.348C21.3507 121.655 22.4567 121.45 23.4236 121.733C24.3814 122.021 25.1942 122.765 25.8619 123.964Z" fill="#1B1A1F"/>
<path d="M21.2048 116.401L9.3329 115.16L8.40055 112.264L17.3128 104.314L18.2978 107.373L10.5007 113.85L10.1278 112.691L20.239 113.402L21.2048 116.401ZM18.3772 114.542L15.9654 114.483L14.3302 109.404L16.2544 107.949L18.3772 114.542Z" fill="#1B1A1F"/>
<path d="M16.0686 97.5704L11.4758 98.0476L13.2481 97.142L5.63752 102.842L5.3006 99.5988L10.817 95.4811L11.0121 97.3586L4.7654 94.4473L4.45589 91.4681L13.074 95.4662L11.1566 94.9753L15.7495 94.4981L16.0686 97.5704Z" fill="#1B1A1F"/>
<path d="M14.8892 87.288L4.55189 81.3196L4.8795 78.2953L16.2568 74.6635L15.9107 77.8584L6.15205 80.5986L6.2831 79.3888L15.2286 84.1552L14.8892 87.288ZM13.0639 84.4385L10.8852 83.4022L11.4598 78.098L13.8099 77.5524L13.0639 84.4385Z" fill="#1B1A1F"/>
<path d="M17.0276 69.9549L6.71387 66.3671L8.35401 61.6522C8.68204 60.7093 9.11619 59.9519 9.65646 59.38C10.2001 58.7984 10.8267 58.4217 11.5361 58.25C12.2356 58.075 12.9783 58.1241 13.7641 58.3975C14.5401 58.6674 15.148 59.0881 15.5879 59.6595C16.018 60.2276 16.2656 60.9083 16.3309 61.7018C16.3899 62.4821 16.2553 63.3437 15.9273 64.2867L14.8509 67.3808L14.079 65.6588L18.0425 67.0376L17.0276 69.9549ZM19.247 63.5751L14.598 64.8318L15.6794 61.723L20.3336 60.4515L19.247 63.5751ZM14.3885 65.7665L12.5966 66.5967L13.6115 63.6793C13.8233 63.0703 13.8479 62.5724 13.6852 62.1854C13.5259 61.7887 13.2105 61.5083 12.739 61.3443C12.2577 61.1768 11.8315 61.1992 11.4604 61.4115C11.0926 61.6139 10.8029 62.0196 10.591 62.6286L9.57616 65.5459L8.68641 63.7829L14.3885 65.7665Z" fill="#1B1A1F"/>
<path d="M21.9588 55.8164L15.2448 45.9471L16.8547 43.366L28.6794 45.0422L26.9786 47.7689L16.9993 45.9935L17.6433 44.9611L23.6266 53.1427L21.9588 55.8164ZM21.554 52.4567L20.0426 50.5762L22.8663 46.0495L25.2198 46.5798L21.554 52.4567Z" fill="#1B1A1F"/>
<path d="M32.7885 39.9694L26.664 34.1174L24.3469 36.5424L22.5761 34.8504L29.3333 27.7785L31.1041 29.4705L28.7978 31.8842L34.9223 37.7361L32.7885 39.9694Z" fill="#1B1A1F"/>
<path d="M41.0168 31.8788L34.4511 23.1531L36.9192 21.296L43.4849 30.0216L41.0168 31.8788Z" fill="#1B1A1F"/>
<path d="M50.428 12.9095L53.2028 11.5525L58 21.3624L55.2252 22.7193L50.428 12.9095ZM51.4414 24.5697L48.6667 25.9266L43.8694 16.1168L46.6442 14.7598L51.4414 24.5697ZM53.5505 18.7975L49.3743 20.8398L48.2504 18.5415L52.4266 16.4992L53.5505 18.7975Z" fill="#1B1A1F"/>
<path d="M74.989 14.1328C74.5769 14.1901 74.1881 14.1498 73.8223 14.0117C73.4654 13.8619 73.1603 13.6314 72.907 13.3201C72.6625 12.9972 72.5101 12.6194 72.4499 12.1868C72.3897 11.7541 72.4344 11.3594 72.5843 11.0025C72.7429 10.6339 72.9742 10.3339 73.278 10.1026C73.5906 9.85958 73.953 9.70937 74.365 9.652C74.777 9.59462 75.1666 9.64012 75.5338 9.7885C75.8995 9.92658 76.2039 10.1519 76.447 10.4646C76.6989 10.7655 76.855 11.1323 76.9152 11.565C76.9755 11.9976 76.927 12.4033 76.7697 12.7823C76.6213 13.1494 76.3908 13.4545 76.0781 13.6976C75.764 13.9303 75.401 14.0754 74.989 14.1328Z" fill="#1B1A1F"/>
</svg>
