<svg width="155" height="22" viewBox="0 0 155 22" fill="none" xmlns="http://www.w3.org/2000/svg">
<path d="M15.675 17.25C15.125 17.25 14.55 17.175 13.95 17.025C13.3667 16.875 12.7417 16.5833 12.075 16.15C11.4083 15.7167 10.675 15.0833 9.875 14.25L5.35 9.525V17H2.5V3.65C2.5 2.9 2.39167 2.3 2.175 1.85C1.975 1.38333 1.5 1.15 0.75 1.15H0.375V0.499999H3.075C3.65833 0.499999 4.10833 0.591666 4.425 0.774999C4.75833 0.958333 4.99167 1.275 5.125 1.725C5.275 2.175 5.35 2.81667 5.35 3.65V8.45L10.05 3.125C10.4333 2.675 10.8333 2.25 11.25 1.85C11.6667 1.45 12.1333 1.125 12.65 0.874999C13.1667 0.624999 13.75 0.499999 14.4 0.499999H15.95V1.275C15.1 1.275 14.3417 1.4 13.675 1.65C13.0083 1.88333 12.3667 2.34167 11.75 3.025L7.575 7.75L13.325 13.75C13.7583 14.2 14.2167 14.625 14.7 15.025C15.2 15.425 15.6833 15.75 16.15 16C16.6333 16.25 17.0583 16.4 17.425 16.45V17C17.2417 17.0667 17 17.125 16.7 17.175C16.4 17.225 16.0583 17.25 15.675 17.25ZM21.9637 17.25C21.397 17.25 20.872 17.175 20.3887 17.025C19.922 16.8917 19.5053 16.6833 19.1387 16.4C18.772 16.1167 18.4803 15.7583 18.2637 15.325C18.0637 14.8917 17.9637 14.3917 17.9637 13.825C17.9637 12.975 18.197 12.2833 18.6637 11.75C19.1303 11.2167 19.847 10.825 20.8137 10.575C21.797 10.3083 23.047 10.175 24.5637 10.175H25.0887C25.0887 9.10833 24.9887 8.28333 24.7887 7.7C24.5887 7.1 24.297 6.68333 23.9137 6.45C23.547 6.2 23.1137 6.075 22.6137 6.075C21.997 6.075 21.4553 6.225 20.9887 6.525C20.522 6.80833 20.197 7.39167 20.0137 8.275H18.7387C18.7387 7.84167 18.7637 7.41667 18.8137 7C18.8803 6.58333 19.0637 6.20833 19.3637 5.875C19.6637 5.54167 20.1637 5.31667 20.8637 5.2C21.5803 5.06667 22.3303 5 23.1137 5C23.8303 5 24.4803 5.09167 25.0637 5.275C25.6637 5.45833 26.172 5.75 26.5887 6.15C27.022 6.55 27.3553 7.09167 27.5887 7.775C27.822 8.44167 27.9387 9.26667 27.9387 10.25V17H26.1637L25.2887 15.875H25.1637C24.9303 16.2083 24.547 16.525 24.0137 16.825C23.4803 17.1083 22.797 17.25 21.9637 17.25ZM22.8637 16.05C23.447 16.05 23.9137 15.8833 24.2637 15.55C24.6303 15.2 24.9053 14.8417 25.0887 14.475V11.25H24.5637C23.347 11.25 22.4387 11.475 21.8387 11.925C21.2387 12.3583 20.9387 12.9917 20.9387 13.825C20.9387 14.575 21.122 15.1333 21.4887 15.5C21.8553 15.8667 22.3137 16.05 22.8637 16.05ZM31.4695 17V8.4C31.4695 7.65 31.3612 7.05 31.1445 6.6C30.9445 6.13333 30.4695 5.9 29.7195 5.9H29.3695V5.25H31.7695C32.3195 5.25 32.7695 5.33333 33.1195 5.5C33.4695 5.65 33.7279 5.89167 33.8945 6.225H33.9945C34.2945 5.94167 34.7112 5.66667 35.2445 5.4C35.7945 5.13333 36.4445 5 37.1945 5C37.7445 5 38.2279 5.075 38.6445 5.225C39.0779 5.35833 39.4445 5.55 39.7445 5.8C40.0612 6.03333 40.2945 6.28333 40.4445 6.55C40.8279 6.1 41.3112 5.73333 41.8945 5.45C42.4945 5.15 43.2279 5 44.0945 5C44.8945 5 45.5945 5.15 46.1945 5.45C46.7945 5.73333 47.2612 6.20833 47.5945 6.875C47.9279 7.525 48.0945 8.41667 48.0945 9.55V17H45.2695V9.55C45.2695 8.31667 45.0779 7.45 44.6945 6.95C44.3279 6.45 43.8529 6.2 43.2695 6.2C42.7862 6.2 42.3279 6.325 41.8945 6.575C41.4612 6.825 41.1362 7.10833 40.9195 7.425C41.0195 7.64167 41.0862 7.95833 41.1195 8.375C41.1695 8.775 41.1945 9.16667 41.1945 9.55V17H38.3695V9.55C38.3695 8.31667 38.1779 7.45 37.7945 6.95C37.4279 6.45 36.9529 6.2 36.3695 6.2C35.9695 6.2 35.5862 6.30833 35.2195 6.525C34.8529 6.725 34.5445 6.95833 34.2945 7.225V17H31.4695ZM54.4344 17.25C53.8677 17.25 53.3427 17.175 52.8594 17.025C52.3927 16.8917 51.976 16.6833 51.6094 16.4C51.2427 16.1167 50.951 15.7583 50.7344 15.325C50.5344 14.8917 50.4344 14.3917 50.4344 13.825C50.4344 12.975 50.6677 12.2833 51.1344 11.75C51.601 11.2167 52.3177 10.825 53.2844 10.575C54.2677 10.3083 55.5177 10.175 57.0344 10.175H57.5594C57.5594 9.10833 57.4594 8.28333 57.2594 7.7C57.0594 7.1 56.7677 6.68333 56.3844 6.45C56.0177 6.2 55.5844 6.075 55.0844 6.075C54.4677 6.075 53.926 6.225 53.4594 6.525C52.9927 6.80833 52.6677 7.39167 52.4844 8.275H51.2094C51.2094 7.84167 51.2344 7.41667 51.2844 7C51.351 6.58333 51.5344 6.20833 51.8344 5.875C52.1344 5.54167 52.6344 5.31667 53.3344 5.2C54.051 5.06667 54.801 5 55.5844 5C56.301 5 56.951 5.09167 57.5344 5.275C58.1344 5.45833 58.6427 5.75 59.0594 6.15C59.4927 6.55 59.826 7.09167 60.0594 7.775C60.2927 8.44167 60.4094 9.26667 60.4094 10.25V17H58.6344L57.7594 15.875H57.6344C57.401 16.2083 57.0177 16.525 56.4844 16.825C55.951 17.1083 55.2677 17.25 54.4344 17.25ZM55.3344 16.05C55.9177 16.05 56.3844 15.8833 56.7344 15.55C57.101 15.2 57.376 14.8417 57.5594 14.475V11.25H57.0344C55.8177 11.25 54.9094 11.475 54.3094 11.925C53.7094 12.3583 53.4094 12.9917 53.4094 13.825C53.4094 14.575 53.5927 15.1333 53.9594 15.5C54.326 15.8667 54.7844 16.05 55.3344 16.05ZM61.6402 21.75V21.175C62.1736 21.125 62.6069 20.925 62.9402 20.575C63.2736 20.225 63.5152 19.7083 63.6652 19.025C63.8319 18.3417 63.9152 17.4583 63.9152 16.375V8.4C63.9152 7.65 63.8069 7.05 63.5902 6.6C63.3902 6.13333 62.9152 5.9 62.1652 5.9H61.8152V5.25H64.5152C65.0986 5.25 65.5486 5.34167 65.8652 5.525C66.1986 5.70833 66.4319 6.025 66.5652 6.475C66.6986 6.925 66.7652 7.56667 66.7652 8.4V16.375C66.7652 17.6917 66.6069 18.7417 66.2902 19.525C65.9902 20.325 65.4652 20.8917 64.7152 21.225C63.9819 21.575 62.9569 21.75 61.6402 21.75ZM65.2652 3.85C64.7319 3.85 64.3152 3.675 64.0152 3.325C63.7319 2.95833 63.5902 2.53333 63.5902 2.05C63.5902 1.66667 63.7069 1.35833 63.9402 1.125C64.1902 0.891665 64.4986 0.774999 64.8652 0.774999C65.3986 0.774999 65.8152 0.958332 66.1152 1.325C66.4152 1.675 66.5652 2.08333 66.5652 2.55C66.5652 2.95 66.4402 3.26667 66.1902 3.5C65.9402 3.73333 65.6319 3.85 65.2652 3.85ZM73.1355 17.25C72.5689 17.25 72.0439 17.175 71.5605 17.025C71.0939 16.8917 70.6772 16.6833 70.3105 16.4C69.9439 16.1167 69.6522 15.7583 69.4355 15.325C69.2355 14.8917 69.1355 14.3917 69.1355 13.825C69.1355 12.975 69.3689 12.2833 69.8355 11.75C70.3022 11.2167 71.0189 10.825 71.9855 10.575C72.9689 10.3083 74.2189 10.175 75.7355 10.175H76.2605C76.2605 9.10833 76.1605 8.28333 75.9605 7.7C75.7605 7.1 75.4689 6.68333 75.0855 6.45C74.7189 6.2 74.2855 6.075 73.7855 6.075C73.1689 6.075 72.6272 6.225 72.1605 6.525C71.6939 6.80833 71.3689 7.39167 71.1855 8.275H69.9105C69.9105 7.84167 69.9355 7.41667 69.9855 7C70.0522 6.58333 70.2355 6.20833 70.5355 5.875C70.8355 5.54167 71.3355 5.31667 72.0355 5.2C72.7522 5.06667 73.5022 5 74.2855 5C75.0022 5 75.6522 5.09167 76.2355 5.275C76.8355 5.45833 77.3439 5.75 77.7605 6.15C78.1939 6.55 78.5272 7.09167 78.7605 7.775C78.9939 8.44167 79.1105 9.26667 79.1105 10.25V17H77.3355L76.4605 15.875H76.3355C76.1022 16.2083 75.7189 16.525 75.1855 16.825C74.6522 17.1083 73.9689 17.25 73.1355 17.25ZM74.0355 16.05C74.6189 16.05 75.0855 15.8833 75.4355 15.55C75.8022 15.2 76.0772 14.8417 76.2605 14.475V11.25H75.7355C74.5189 11.25 73.6105 11.475 73.0105 11.925C72.4105 12.3583 72.1105 12.9917 72.1105 13.825C72.1105 14.575 72.2939 15.1333 72.6605 15.5C73.0272 15.8667 73.4855 16.05 74.0355 16.05ZM82.7229 22V21.175C83.5562 21.175 84.2562 21.0083 84.8229 20.675C85.3895 20.3417 85.8645 19.675 86.2479 18.675L86.7479 17.3L82.4479 7.5C82.1979 6.88333 81.8562 6.41667 81.4229 6.1C81.0062 5.76667 80.5145 5.56667 79.9479 5.5V5H82.1229C82.8729 5 83.5145 5.18333 84.0479 5.55C84.5979 5.9 85.0062 6.38333 85.2729 7L88.1479 13.55L91.2229 5.25H92.5229L87.5479 18.625C87.2145 19.525 86.8562 20.2167 86.4729 20.7C86.0895 21.2 85.6645 21.5417 85.1979 21.725C84.7312 21.9083 84.2062 22 83.6229 22H82.7229ZM97.7205 17.25C97.1538 17.25 96.6288 17.175 96.1455 17.025C95.6788 16.8917 95.2622 16.6833 94.8955 16.4C94.5288 16.1167 94.2372 15.7583 94.0205 15.325C93.8205 14.8917 93.7205 14.3917 93.7205 13.825C93.7205 12.975 93.9538 12.2833 94.4205 11.75C94.8872 11.2167 95.6038 10.825 96.5705 10.575C97.5538 10.3083 98.8038 10.175 100.321 10.175H100.846C100.846 9.10833 100.746 8.28333 100.546 7.7C100.346 7.1 100.054 6.68333 99.6705 6.45C99.3038 6.2 98.8705 6.075 98.3705 6.075C97.7538 6.075 97.2122 6.225 96.7455 6.525C96.2788 6.80833 95.9538 7.39167 95.7705 8.275H94.4955C94.4955 7.84167 94.5205 7.41667 94.5705 7C94.6372 6.58333 94.8205 6.20833 95.1205 5.875C95.4205 5.54167 95.9205 5.31667 96.6205 5.2C97.3372 5.06667 98.0872 5 98.8705 5C99.5872 5 100.237 5.09167 100.821 5.275C101.421 5.45833 101.929 5.75 102.346 6.15C102.779 6.55 103.112 7.09167 103.346 7.775C103.579 8.44167 103.696 9.26667 103.696 10.25V17H101.921L101.046 15.875H100.921C100.687 16.2083 100.304 16.525 99.7705 16.825C99.2372 17.1083 98.5538 17.25 97.7205 17.25ZM98.6205 16.05C99.2038 16.05 99.6705 15.8833 100.021 15.55C100.387 15.2 100.662 14.8417 100.846 14.475V11.25H100.321C99.1038 11.25 98.1955 11.475 97.5955 11.925C96.9955 12.3583 96.6955 12.9917 96.6955 13.825C96.6955 14.575 96.8788 15.1333 97.2455 15.5C97.6122 15.8667 98.0705 16.05 98.6205 16.05ZM107.151 17V8.4C107.151 7.65 107.051 7.05 106.851 6.6C106.651 6.13333 106.176 5.9 105.426 5.9H105.176V5.25H107.451C108.035 5.25 108.485 5.33333 108.801 5.5C109.135 5.65 109.385 5.9 109.551 6.25C109.851 5.98333 110.268 5.70833 110.801 5.425C111.335 5.14167 111.968 5 112.701 5C113.018 5 113.318 5.04167 113.601 5.125C113.901 5.19167 114.151 5.3 114.351 5.45C114.601 5.61667 114.793 5.825 114.926 6.075C115.06 6.30833 115.16 6.475 115.226 6.575L114.051 7.45C113.885 7.21667 113.643 7.01667 113.326 6.85C113.01 6.66667 112.643 6.575 112.226 6.575C111.71 6.575 111.251 6.66667 110.851 6.85C110.468 7.03333 110.16 7.26667 109.926 7.55C109.943 7.75 109.96 7.94167 109.976 8.125C109.993 8.29167 110.001 8.43333 110.001 8.55V17H107.151ZM120.206 17.25C119.639 17.25 119.114 17.175 118.631 17.025C118.164 16.8917 117.748 16.6833 117.381 16.4C117.014 16.1167 116.723 15.7583 116.506 15.325C116.306 14.8917 116.206 14.3917 116.206 13.825C116.206 12.975 116.439 12.2833 116.906 11.75C117.373 11.2167 118.089 10.825 119.056 10.575C120.039 10.3083 121.289 10.175 122.806 10.175H123.331C123.331 9.10833 123.231 8.28333 123.031 7.7C122.831 7.1 122.539 6.68333 122.156 6.45C121.789 6.2 121.356 6.075 120.856 6.075C120.239 6.075 119.698 6.225 119.231 6.525C118.764 6.80833 118.439 7.39167 118.256 8.275H116.981C116.981 7.84167 117.006 7.41667 117.056 7C117.123 6.58333 117.306 6.20833 117.606 5.875C117.906 5.54167 118.406 5.31667 119.106 5.2C119.823 5.06667 120.573 5 121.356 5C122.073 5 122.723 5.09167 123.306 5.275C123.906 5.45833 124.414 5.75 124.831 6.15C125.264 6.55 125.598 7.09167 125.831 7.775C126.064 8.44167 126.181 9.26667 126.181 10.25V17H124.406L123.531 15.875H123.406C123.173 16.2083 122.789 16.525 122.256 16.825C121.723 17.1083 121.039 17.25 120.206 17.25ZM121.106 16.05C121.689 16.05 122.156 15.8833 122.506 15.55C122.873 15.2 123.148 14.8417 123.331 14.475V11.25H122.806C121.589 11.25 120.681 11.475 120.081 11.925C119.481 12.3583 119.181 12.9917 119.181 13.825C119.181 14.575 119.364 15.1333 119.731 15.5C120.098 15.8667 120.556 16.05 121.106 16.05ZM133.137 17.25C132.103 17.25 131.278 16.9667 130.662 16.4C130.062 15.8167 129.762 14.9417 129.762 13.775V6.325H128.162V5.25H129.762V3L131.012 1.5H132.612V5.25H135.462V6.325H132.612V13.85C132.612 14.7167 132.737 15.325 132.987 15.675C133.237 16.0083 133.603 16.175 134.087 16.175C134.52 16.175 134.895 16.1167 135.212 16C135.528 15.8667 135.795 15.725 136.012 15.575L136.337 16.2C136.02 16.45 135.612 16.6917 135.112 16.925C134.612 17.1417 133.953 17.25 133.137 17.25ZM138.354 17V8.4C138.354 7.65 138.245 7.05 138.029 6.6C137.829 6.13333 137.354 5.9 136.604 5.9H136.254V5.25H138.954C139.537 5.25 139.987 5.34167 140.304 5.525C140.637 5.70833 140.87 6.025 141.004 6.475C141.137 6.925 141.204 7.56667 141.204 8.4V17H138.354ZM139.704 3.85C139.17 3.85 138.754 3.675 138.454 3.325C138.17 2.95833 138.029 2.53333 138.029 2.05C138.029 1.66667 138.145 1.35833 138.379 1.125C138.629 0.891665 138.937 0.774999 139.304 0.774999C139.837 0.774999 140.254 0.958332 140.554 1.325C140.854 1.675 141.004 2.08333 141.004 2.55C141.004 2.95 140.879 3.26667 140.629 3.5C140.379 3.73333 140.07 3.85 139.704 3.85ZM144.374 17V3.65C144.374 2.9 144.266 2.3 144.049 1.85C143.849 1.38333 143.374 1.15 142.624 1.15H142.274V0.499999H144.974C145.557 0.499999 146.007 0.591666 146.324 0.774999C146.657 0.958333 146.891 1.275 147.024 1.725C147.157 2.175 147.224 2.81667 147.224 3.65V6.075C147.507 5.80833 147.907 5.56667 148.424 5.35C148.941 5.11667 149.524 5 150.174 5C150.724 5 151.266 5.06667 151.799 5.2C152.332 5.33333 152.816 5.56667 153.249 5.9C153.699 6.23333 154.057 6.7 154.324 7.3C154.591 7.88333 154.724 8.63333 154.724 9.55V17H151.874V9.625C151.874 8.775 151.757 8.1 151.524 7.6C151.291 7.1 150.982 6.74167 150.599 6.525C150.232 6.30833 149.841 6.2 149.424 6.2C148.957 6.2 148.532 6.31667 148.149 6.55C147.766 6.78333 147.457 7.01667 147.224 7.25V17H144.374Z" fill="white"/>
</svg>
