<svg width="49" height="96" viewBox="0 0 49 96" fill="none" xmlns="http://www.w3.org/2000/svg">
<path d="M49 23.5C49 26.5861 48.3922 29.6419 47.2112 32.4931C46.0302 35.3442 44.2992 37.9348 42.117 40.117C39.9348 42.2992 37.3442 44.0302 34.4931 45.2112C31.6419 46.3922 28.5861 47 25.5 47L25.5 23.5H49Z" fill="#FEFFF9"/>
<path d="M49 72.5C49 69.4139 48.3922 66.3581 47.2112 63.5069C46.0302 60.6558 44.2992 58.0652 42.117 55.883C39.9348 53.7008 37.3442 51.9698 34.4931 50.7888C31.6419 49.6078 28.5861 49 25.5 49L25.5 72.5H49Z" fill="#FEFFF9"/>
<rect y="23" width="23" height="50" fill="#FEFFF9"/>
</svg>
